# AST/ASF file generated using VICON BodyLanguage
# -----------------------------------------------
:version 1.10
:name VICON
:units
  mass 1.0
  length 0.45
  angle deg
:documentation
   .ast/.asf automatically generated from VICON data using
   VICON BodyBuilder and BodyLanguage model FoxedUp or BRILLIANT.MOD
:root
   order TX TY TZ RX RY RZ
   axis XYZ
   position 0 0 0  
   orientation 0 -0 0 
:bonedata
  begin
     id 1 
     name lhipjoint
     direction 0.515797 -0.759363 0.396637 
     length 2.47888 
     axis 0 -0 0  XYZ
  end
  begin
     id 2 
     name lfemur
     direction 0.34202 -0.939693 0  
     length 6.81885  
     axis 0 -0 20  XYZ
    dof rx ry rz
    limits (-160.0 20.0)
           (-70.0 70.0)
           (-60.0 70.0)
  end
  begin
     id 3 
     name ltibia
     direction 0.342037 -0.939687 0   
     length 7.89258   
     axis 0 -0 20   XYZ
    dof rx
    limits (-10.0 170.0)
  end
  begin
     id 4 
     name lfoot
     direction 0.173497 -0.476678 0.861787   
     length 2.51543   
     axis -90 -1.13533e-015 20   XYZ
    dof rx rz
    limits (-45.0 90.0)
           (-70.0 20.0)
  end
  begin
     id 5 
     name ltoes
     direction 1.53564e-011 -4.21897e-011 1   
     length 1.21388   
     axis -90 -1.13533e-015 20   XYZ
    dof rx
    limits (-90.0 20.0)
  end
  begin
     id 6 
     name rhipjoint
     direction -0.489454 -0.772941 0.403729   
     length 2.43534  
     axis 0 -0 0  XYZ 
  end
  begin
     id 7 
     name rfemur
     direction -0.34202 -0.939693 0   
     length 7.10357   
     axis 0 -0 -20   XYZ
    dof rx ry rz
    limits (-160.0 20.0)
           (-70.0 70.0)
           (-70.0 60.0)
  end
  begin
     id 8 
     name rtibia
     direction -0.34202 -0.939693 0   
     length 9.16127   
     axis 0 -0 -20   XYZ
    dof rx
    limits (-10.0 170.0)
 end
 begin
     id 9 
     name rfoot
     direction -0.270974 -0.748671 0.605033   
     length 1.74894  
     axis -90 1.13533e-015 -20   XYZ
    dof rx rz
    limits (-45.0 90.0)
           (-20.0 70.0)
  end
  begin
     id 10 
     name rtoes
     direction -1.53557e-011 -4.21759e-011 1   
     length 0.787585   
     axis -90 1.13533e-015 -20   XYZ
    dof rx
    limits (-90.0 20.0)
  end
  begin
     id 11 
     name lowerback
     direction -0.0140249 0.999561 0.0260968   
     length 2.16963   
     axis 0 -0 0   XYZ
    dof rx ry rz
    limits (-20.0 45.0)
           (-30.0 30.0)
           (-30.0 30.0)
  end
  begin
     id 12 
     name upperback
     direction 0.00860018 0.999959 -0.002711   
     length 2.1726   
     axis 0 -0 0   XYZ
    dof rx ry rz
    limits (-20.0 45.0)
           (-30.0 30.0)
           (-30.0 30.0)
  end
  begin
     id 13 
     name thorax
     direction 0.015211 0.999782 -0.0143191   
     length 2.17061   
     axis 0 -0 0   XYZ
    dof rx ry rz
    limits (-20.0 45.0)
           (-30.0 30.0)
           (-30.0 30.0)
  end
  begin
     id 14 
     name lowerneck
     direction -0.0140143 0.999447 0.030145   
     length 2.26749   
     axis 0 -0 0   XYZ
    dof rx ry rz
    limits (-20.0 45.0)
           (-30.0 30.0)
           (-30.0 30.0)
  end
  begin
     id 15 
     name upperneck
     direction 0.118062 0.961438 -0.248392   
     length 2.22728   
     axis 0 -0 0   XYZ
    dof rx ry rz
    limits (-20.0 45.0)
           (-30.0 30.0)
           (-30.0 30.0)
  end
  begin
     id 16
     name head
     direction 0.0431885 0.9954 -0.085514  
     length 2.28786  
     axis 0 -0 0   XYZ
    dof rx ry rz
    limits (-20.0 45.0)
           (-30.0 30.0)
           (-30.0 30.0)
  end
  begin
     id 17 
     name lclavicle
     direction 0.912126 0.409548 0.0172323  
     length 4.31571  
     axis 0 -0 0   XYZ
    dof ry rz
    limits (-20.0 10.0)
           (0.0 20.0)
  end
  begin
     id 18 
     name lhumerus
     direction 1 -4.48977e-011 1.93091e-027   
     length 5.13658   
     axis 180 -30 -90   XYZ
    dof rx ry rz
    limits (-60.0 90.0)
           (-90.0 90.0)
           (-90.0 90.0)
  end
  begin
     id 19
     name lradius
     direction 1 -4.48916e-011 6.84018e-027   
     length 3.22473   
     axis 180 -30 -90   XYZ
    dof rx
    limits (-10.0 170.0)
  end
  begin
     id 20
     name lwrist
     direction 1 -4.48987e-011 7.01981e-027   
     length 1.61236   
     axis -4.37994e-015 90 90   XYZ
    dof ry
    limits (-180.0 0.0)
 end
  begin
     id 21 
     name lhand
     direction 1 -4.49037e-011 1.40335e-026   
     length 0.936406   
     axis -8.96029e-015 90 90   XYZ
    dof rx rz
    limits (-90.0 90.0)
           (-45.0 45.0)
  end
  begin
     id 22 
     name lfingers
     direction 1 -4.48886e-011 2.8104e-026   
     length 0.754955   
     axis -1.79203e-014 90 90   XYZ
    dof rx
    limits (0.0 90.0)
  end
  begin
     id 23
     name lthumb
     direction 0.707107 -6.34937e-011 0.707107   
     length 1.08397   
     axis -90 45 -4.48555e-014   XYZ
    dof rx rz
    limits (-45.0 45.0)
           (-45.0 45.0)
  end
  begin
     id 24 
     name rclavicle
     direction -0.947962 0.317997 0.0156638   
     length 4.86918  
     axis 0 -0 0   XYZ 
    dof ry rz
    limits (-10.0 20.0)
           (-20.0 0.0)
  end
  begin
     id 25 
     name rhumerus
     direction -1 -4.48951e-011 2.80534e-018  
     length 5.60911   
     axis 180 30 90   XYZ
    dof rx ry rz
    limits (-90.0 60.0)
           (-90.0 90.0)
           (-90.0 90.0)
  end
  begin
     id 26 
     name rradius
     direction -1 -4.4898e-011 2.11315e-027   
     length 3.38704   
     axis 180 30 90   XYZ
    dof rx
    limits (-10.0 170.0)
  end
  begin
     id 27 
     name rwrist
     direction -1 -4.48933e-011 7.02314e-027   
     length 1.69352   
     axis -4.37994e-015 -90 -90   XYZ
    dof ry
    limits (-180.0 0.0)
  end
  begin
     id 28
     name rhand
     direction -1 -4.48937e-011 1.40458e-026   
     length 0.755878   
     axis -8.96029e-015 -90 -90   XYZ
    dof rx rz
    limits (-90.0 90.0)
           (-45.0 45.0)
  end
  begin
     id 29
     name rfingers
     direction -1 -4.4901e-011 2.80737e-026   
     length 0.609409   
     axis -1.79203e-014 -90 -90   XYZ
    dof rx
    limits (0.0 90.0)
  end
  begin
     id 30
     name rthumb
     direction -0.707107 -6.34968e-011 0.707107   
     length 0.874992   
     axis -90 -45 4.48555e-014   XYZ
    dof rx rz
    limits (-45.0 45.0)
           (-45.0 45.0)
  end
:hierarchy
  begin
    root lhipjoint rhipjoint lowerback
    lhipjoint lfemur
    lfemur ltibia
    ltibia lfoot
    lfoot ltoes
    rhipjoint rfemur
    rfemur rtibia
    rtibia rfoot
    rfoot rtoes
    lowerback upperback
    upperback thorax
    thorax lowerneck lclavicle rclavicle
    lowerneck upperneck
    upperneck head
    lclavicle lhumerus
    lhumerus lradius
    lradius lwrist
    lwrist lhand lthumb
    lhand lfingers
    rclavicle rhumerus
    rhumerus rradius
    rradius rwrist
    rwrist rhand rthumb
    rhand rfingers
  end

#!OML:ASF C:\ViconDB\ViconDB\414\Spring2016\041811\Spring2016.ASF
:FULLY-SPECIFIED
:DEGREES
1
root 13.2393 18.1019 9.87096 -174.543 -5.20467 -178.143
lowerback -7.92289 0.949425 -2.04164
upperback 0.534355 1.41602 0.620826
thorax 4.93692 0.632714 1.96307
lowerneck -11.4557 2.36127 -5.31113
upperneck 24.0143 0.247366 11.631
head 9.35339 0.368252 4.91009
rclavicle -2.96935e-015 4.17448e-015
rhumerus -83.2204 30.063 -114.166
rradius 86.9345
rwrist 31.1965
rhand -47.6854 -0.34128
rfingers 7.12502
rthumb -20.3661 -29.2933
lclavicle -2.96935e-015 4.17448e-015
lhumerus -84.5557 -42.9977 119.335
lradius 75.6119
lwrist -28.8597
lhand -46.6444 -1.53656
lfingers 7.12502
lthumb -19.3654 27.5192
rfemur 163.616 55.4575 -172.085
rtibia 29.5738
rfoot -56.0297 -45.0175
rtoes -29.8272
lfemur -5.81343 -12.729 -12.9601
ltibia 23.3263
lfoot -25.32 6.93168
ltoes -12.9084
2
root 13.2344 18.1003 9.87271 -174.528 -5.21411 -178.147
lowerback -7.89917 0.949056 -2.0518
upperback 0.544786 1.41635 0.622563
thorax 4.93415 0.632691 1.97024
lowerneck -11.5941 2.37154 -5.48198
upperneck 24.1075 0.246699 11.8097
head 9.40929 0.37344 5.01083
rclavicle -1.42504e-014 2.38542e-015
rhumerus -83.1865 30.0406 -114.14
rradius 86.9053
rwrist 31.2044
rhand -47.7065 -0.38638
rfingers 7.12502
rthumb -20.3864 -29.3363
lclavicle -1.42504e-014 2.38542e-015
lhumerus -84.5288 -42.998 119.333
lradius 75.6154
lwrist -28.8526
lhand -46.6638 -1.48431
lfingers 7.12502
lthumb -19.384 27.5695
rfemur 163.644 55.5472 -172.078
rtibia 29.5776
rfoot -56.1897 -45.0025
rtoes -29.9477
lfemur -5.84887 -12.6959 -12.9788
ltibia 23.3497
lfoot -25.3118 6.92595
ltoes -12.9219
3
root 13.2286 18.1 9.87414 -174.5 -5.21516 -178.148
lowerback -7.87708 0.931504 -2.06707
upperback 0.536069 1.39152 0.664928
thorax 4.91238 0.619749 2.01932
lowerneck -11.4752 2.36639 -5.48184
upperneck 23.9965 0.282475 11.7061
head 9.34459 0.379722 4.97046
rclavicle -2.70844e-015 5.96354e-016
rhumerus -83.2669 30.1291 -114.137
rradius 86.935
rwrist 31.1166
rhand -47.6427 -0.37868
rfingers 7.12502
rthumb -20.325 -29.3351
lclavicle -2.70844e-015 5.96354e-016
lhumerus -84.4844 -42.9213 119.356
lradius 75.6172
lwrist -28.7728
lhand -46.6363 -1.5746
lfingers 7.12502
lthumb -19.3576 27.4819
rfemur 163.713 55.6554 -172.057
rtibia 29.5543
rfoot -56.2946 -44.9853
rtoes -29.9137
lfemur -5.91183 -12.7243 -12.9989
ltibia 23.398
lfoot -25.411 6.93816
ltoes -12.6693
4
root 13.2227 18.1005 9.87496 -174.475 -5.21474 -178.162
lowerback -7.85873 0.925732 -2.03924
upperback 0.536919 1.38502 0.588714
thorax 4.90571 0.618516 1.92319
lowerneck -11.5714 2.4027 -5.37298
upperneck 24.0703 0.274512 11.7874
head 9.39057 0.393283 4.98442
rclavicle 2.41648e-014 1.13307e-014
rhumerus -83.2789 30.1162 -114.278
rradius 86.969
rwrist 31.001
rhand -47.6105 -0.369108
rfingers 7.12502
rthumb -20.2941 -29.3288
lclavicle 2.41648e-014 1.13307e-014
lhumerus -84.4616 -42.9081 119.209
lradius 75.6147
lwrist -28.7864
lhand -46.6028 -1.68223
lfingers 7.12502
lthumb -19.3254 27.3775
rfemur 163.766 55.7326 -172.059
rtibia 29.54
rfoot -56.3801 -44.9615
rtoes -29.9533
lfemur -5.96707 -12.6728 -13.0259
ltibia 23.4313
lfoot -25.531 6.86942
ltoes -12.3119
5
root 13.2153 18.1003 9.87538 -174.44 -5.21606 -178.176
lowerback -7.86603 0.964953 -1.99046
upperback 0.534571 1.43501 0.544851
thorax 4.90726 0.645085 1.85613
lowerneck -11.6325 2.3882 -5.44164
upperneck 24.0948 0.212425 11.98
head 9.41525 0.377098 5.06118
rclavicle -3.33461e-014 -1.98785e-015
rhumerus -83.2288 29.9985 -114.255
rradius 86.9492
rwrist 31.0453
rhand -47.6576 -0.476765
rfingers 7.12502
rthumb -20.3394 -29.4317
lclavicle -3.33461e-014 -1.98785e-015
lhumerus -84.5464 -43.002 119.278
lradius 75.6214
lwrist -28.8059
lhand -46.5927 -1.64153
lfingers 7.12502
lthumb -19.3157 27.4192
rfemur 163.834 55.8738 -172.055
rtibia 29.5202
rfoot -56.5631 -44.9911
rtoes -29.8597
lfemur -6.01835 -12.6918 -13.0666
ltibia 23.4685
lfoot -25.4653 6.89375
ltoes -12.437
6
root 13.2097 18.0993 9.87544 -174.448 -5.17885 -178.187
lowerback -7.8188 0.986195 -2.00595
upperback 0.538871 1.4647 0.535209
thorax 4.88362 0.659949 1.85722
lowerneck -11.6511 2.38303 -5.45262
upperneck 24.1409 0.196107 11.9914
head 9.43644 0.368677 5.06774
rclavicle 3.71355e-014 6.16232e-015
rhumerus -83.2247 29.9596 -114.276
rradius 86.9139
rwrist 31.0651
rhand -47.6964 -0.568872
rfingers 7.12502
rthumb -20.3766 -29.5198
lclavicle 3.71355e-014 6.16232e-015
lhumerus -84.5457 -42.9907 119.265
lradius 75.635
lwrist -28.831
lhand -46.5848 -1.6173
lfingers 7.12502
lthumb -19.3081 27.4442
rfemur 163.835 55.884 -172.088
rtibia 29.5194
rfoot -56.5616 -44.9555
rtoes -29.5576
lfemur -6.00782 -12.6817 -13.114
ltibia 23.4821
lfoot -25.3849 6.96183
ltoes -12.9456
